<?xml version="1.0" encoding="UTF-8"?>
<svg version="1.1" viewBox="0 0 1600 1600" width="1280" height="1280" xmlns="http://www.w3.org/2000/svg">
<path transform="translate(0)" d="m0 0h1600v1600h-1600v-1600z" fill="#FCFCFC"/>
<path transform="translate(738,821)" d="m0 0c0.7 0.105 1.4 0.211 2.12 0.32 14.8 2.2 29.6 4.08 44.6 5.43 0.685 0.0647 1.37 0.129 2.08 0.196 19.2 1.79 37.9 0.809 57.1-0.815 2.78-0.233 5.56-0.452 8.33-0.67 0.847-0.0759 1.69-0.152 2.57-0.23 5.94-0.457 5.94-0.457 9.28 1.77-0.727 0.601-0.727 0.601-1.47 1.21-36.2 30.7-36.5 88.5-40.2 132-0.18 2.25-0.356 4.5-0.527 6.75-0.0717 0.931-0.143 1.86-0.217 2.82-1.39 19.8-1.75 39.7-1.76 59.5-4e-3 2.29-0.00819 4.59-0.0126 6.88-0.0112 7.28-0.00968 14.6-0.00697 21.8-5.61e-5 2.5-1.17e-4 5.01-1.83e-4 7.51 0.00555 28.3 0.0358 56.5 1.06 84.8 0.0392 1.1 0.0784 2.19 0.119 3.32 0.261 7 0.603 14 1.01 21 0.0655 1.16 0.131 2.32 0.198 3.52 1.08 19.5 1.08 19.5 4.74 38.6 0.543 2.23 1.08 4.47 1.62 6.7 0.254 1.05 0.507 2.1 0.769 3.18 0.963 4.26 1.61 8.55 2.24 12.9 1.68 10.9 4.23 21.3 13.4 28.1 15.1 10.7 33.5 13.9 51.2 17.4 7.57 1.5 15.1 3.22 22.6 5 11.3 2.66 11.3 2.66 22.6 5.17 7.42 1.59 14.8 3.42 22.1 5.39 0.897 0.237 1.79 0.475 2.72 0.719 18.5 5.05 18.5 5.05 22.8 12.3 1.6 4.85 1.28 9.31-0.73 14-8.01 12.7-23.9 16.4-37.5 19.5-41 8.94-83.3 12.7-125 12.6-1.8 6.77e-4 -3.6 0.00165-5.4 0.0029-3.74 0.00146-7.48-6.15e-4 -11.2-0.00534-4.72-0.00568-9.44-0.00231-14.2 0.00342-25.7 0.0268-51.2-0.314-76.8-3.01-0.862-0.089-1.72-0.178-2.61-0.27-21.4-2.21-42.4-5-63.3-9.86-1.29-0.298-1.29-0.298-2.61-0.602-13.6-3.22-25.9-7.5-34.4-19.4-1.87-3.75-1.52-7.92-1-12 3.55-6.72 10-8.82 17-11 6.66-1.92 13.4-3.62 20.1-5.29 1.9-0.47 3.8-0.946 5.7-1.43 8.53-2.16 17.1-4.14 25.7-6.1 1.14-0.261 1.14-0.261 2.3-0.527 9.26-2.12 18.5-4.17 27.8-6.11 29.3-5.29 29.3-5.29 52.4-22.6 3.41-5.62 4.93-11.1 6.06-17.6 0.337-1.79 0.674-3.59 1.01-5.38 0.159-0.87 0.318-1.74 0.482-2.64 0.574-3.12 1.19-6.24 1.82-9.35 0.233-1.19 0.467-2.38 0.707-3.61 0.732-3.64 1.55-7.26 2.37-10.9 3.7-16.6 5.74-32.6 6.55-49.6 0.0393-0.813 0.0785-1.63 0.119-2.46 1.49-30.9 2.21-61.8 2.14-92.7-0.0115-5.43-0.00455-10.9 0.00688-16.3 0.0473-26.6-0.515-53-2.27-79.5-0.0537-0.815-0.107-1.63-0.163-2.47-0.169-2.54-0.34-5.09-0.512-7.63-0.052-0.769-0.104-1.54-0.157-2.33-1.42-20.7-3.95-41.1-7.17-61.6-0.166-1.08-0.332-2.15-0.503-3.26-3.98-25.2-11.6-51.5-32.5-67.7-1.97-1.41-3.95-2.72-6-4 0.33-0.66 0.66-1.32 1-2z" fill="#499DCE"/>
<path transform="translate(529,557)" d="m0 0c5.5 2.31 9.93 5.39 14.6 9.12 12 9.66 24.9 17.5 38.4 24.9 0.764 0.418 1.53 0.836 2.31 1.27 10.3 5.64 20.6 10.7 31.7 14.7 0.673 0.247 1.35 0.494 2.04 0.749 28.7 10.4 57.8 13.5 88.1 13.6 1.57 0.00684 1.57 0.00684 3.17 0.0138 17.3 0.0265 34.4-0.987 51.6-2.7 1.08-0.107 2.15-0.213 3.26-0.323 11.8-1.19 23.5-2.67 35.2-4.61 4.99-0.821 9.99-1.51 15-2.21 10.9-1.54 21.8-3.41 32.7-5.36 1.47-0.262 1.47-0.262 2.97-0.53 15.1-2.7 30.2-5.61 45.2-8.84 4.5-0.959 9-1.89 13.5-2.83 2.55-0.531 5.1-1.06 7.66-1.59 1.64-0.341 3.28-0.681 4.91-1.02 8.66-1.8 17.3-3.71 25.8-5.9 31.2-7.9 60.1-12.9 91.9-6.48 1.13 0.215 2.27 0.431 3.43 0.652 20.4 4.23 20.4 4.23 26.6 10.3 0.47 4.52-0.17 7.92-1.52 12.2-0.276 0.892-0.551 1.78-0.835 2.7-0.213 0.675-0.426 1.35-0.645 2.05-0.875 0.0198-1.75 0.0396-2.65 0.0601-23.5 0.559-45.5 1.82-68.3 7.94-1.85 0.495-1.85 0.495-3.74 1-31.8 8.57-62.8 19.3-93.5 31.2-1.43 0.551-2.87 1.1-4.3 1.65-1.04 0.4-1.04 0.4-2.1 0.809-5.77 2.2-11.6 4.26-17.4 6.3-5.38 1.89-10.7 3.92-16 6.08-5.72 2.34-11.5 4.58-17.3 6.73-6.27 2.33-12.5 4.77-18.7 7.26-46.4 18.6-90.4 32.6-141 32.3-0.965-0.0031-1.93-0.0062-2.93-0.0094-13.8-0.052-27.5-0.351-41.2-2.24-1.57-0.201-1.57-0.201-3.18-0.407-11.8-1.52-23.5-3.29-35.1-6.09-0.799-0.189-1.6-0.379-2.42-0.573-12.9-3.33-18.3-13.5-24.7-24.3-10.4-18-21.2-37.4-26.5-57.7 5.11 0.49 8.64 2.33 12.9 5.06 52.5 32.5 134 45.3 194 31.9 2.35-0.622 4.67-1.3 7-2-1.86-1.86-4.98-1.2-7.47-1.25-1.38-0.0313-2.75-0.0629-4.13-0.0947-0.727-0.0153-1.45-0.0307-2.2-0.0465-24.8-0.55-48.9-3.04-73.4-7-3.36-0.539-6.72-1.05-10.1-1.55-20.2-3.1-40-8.87-58.7-17.1-1.27-0.527-2.55-1.05-3.82-1.57-15.6-6.48-30.3-14.9-44.2-24.4-1.13-0.773-1.13-0.773-2.29-1.56-2.46-1.69-4.9-3.41-7.34-5.13-0.771-0.535-1.54-1.07-2.34-1.62-7.09-5.08-10.3-10.2-12.3-18.6-0.173-0.677-0.345-1.35-0.523-2.05-1.07-4.44-1.39-8.44-1.23-13z" fill="#499DCE"/>
<path transform="translate(1051,644)" d="m0 0c-11.1 24.4-24.6 47.2-41.6 68-1.49 1.84-2.95 3.7-4.34 5.62-3.86 5.07-3.86 5.07-7.22 5.88-2.38 0.0527-4.5-0.155-6.86-0.512-41.2-5.68-82.7 8.86-122 20.3-2.26 0.664-4.52 1.33-6.78 1.99-8.18 2.4-16.3 4.84-24.5 7.36-14.4 4.45-28.8 8.85-43.3 13.2-2.3 0.691-4.6 1.38-6.89 2.08-27.3 8.26-53.8 11.2-82.3 11.3-0.85 0.00536-1.7 0.0107-2.57 0.0162-31.9 0.153-31.9 0.153-42.8-8.33-0.796-0.582-1.59-1.16-2.41-1.76-2.29-1.69-4.54-3.42-6.77-5.17-0.598-0.465-1.2-0.93-1.81-1.41-3.13-2.45-6.17-5-9.19-7.59-1.23-0.959-2.46-1.92-3.69-2.88-1.14-1.05-1.14-1.05-2.31-2.12v-3c2.31 0.143 4.63 0.29 6.94 0.438 1.93 0.122 1.93 0.122 3.9 0.246 2.81 0.194 5.6 0.478 8.4 0.819 4.39 0.493 8.74 0.704 13.2 0.771 0.774 0.0126 1.55 0.0251 2.35 0.0381 27.6 0.361 52.7-3.33 79.2-11.4 2.92-0.879 5.84-1.71 8.77-2.54 42.3-12.2 83.6-30 124-48.1 11.7-5.26 23.6-10.1 35.5-15 2.63-1.08 5.26-2.19 7.87-3.31 31.9-13.6 64.9-20.1 99.2-24 1.54-0.184 1.54-0.184 3.11-0.371 2.75-0.327 5.51-0.639 8.27-0.941 1.16-0.133 1.16-0.133 2.34-0.269 4.95-0.497 9.37-0.19 14.3 0.581z" fill="#499DCE"/>
<path transform="translate(767 332)" d="m0 0c5.11 4.04 8 9.87 11.2 15.4 2.49 3.85 5.35 6.72 8.8 9.72 7.01 7.67 10 16.9 13.1 26.6 3.22 9.8 6.77 19.1 11.7 28.2 1.4 2.68 1.4 2.68 1.4 4.68h2c0.33 0.66 0.66 1.32 1 2 0.953-0.554 1.91-1.11 2.89-1.68 1.27-0.732 2.53-1.46 3.8-2.2 0.626-0.365 1.25-0.73 1.9-1.11 7.16-4.12 13-6.28 21.4-5.02 6.62 2.6 8.93 9.59 11.7 15.6 3.66 7.67 8.73 14 14.3 20.4 0.519 0.643 1.04 1.29 1.57 1.95 1.38 1.25 1.38 1.25 3.29 0.988 6.73-2.95 12.4-9.09 17.4-14.3 9.99-10.2 25.1-23.6 39.7-25.8 7.56 0.472 12.8 7.79 17.4 13 2.16 2.56 4.14 5.23 6.11 7.95 6.47 8.88 14.4 14.9 23.4 21.2 10.9 7.62 19.5 16.6 27.1 27.5 1.88 2.42 3.25 4.02 5.94 5.5 2.75 0.213 2.75 0.213 5.69-0.0625 7.49-0.183 12.5 1.67 18.2 6.5 3.15 3.8 4.91 6.47 5.88 11.4 1.44 6.24 6.08 10.1 10.6 14.4 6.9 6.64 10.9 12.1 11.7 21.8h-2c-0.33 0.66-0.66 1.32-1 2-0.666-0.918-1.33-1.84-2.02-2.78-5.23-7.03-10.1-12.5-17.5-17.4-7.09-5.04-11.3-12.3-15.5-19.8-1.04 0.13-2.08 0.26-3.15 0.395-8.82 0.94-15.4 1.18-22.9-4.39-4.23-3.47-7.47-7.57-10.8-11.9-6.03-7.62-12.8-13.4-21.1-18.5-15.6-9.69-26.6-23.7-37.1-38.6-5.13 0.498-8.64 3.08-12.8 5.88-1.11 0.734-1.11 0.734-2.25 1.48-2.32 1.54-4.63 3.09-6.94 4.64-0.718 0.484-1.44 0.968-2.18 1.47-7.72 5.23-15.3 10.6-22.8 16.2-2.04 1.36-2.04 1.36-4.04 1.36 0.514 5.31 1.84 9.19 4.25 13.9 2.7 5.51 4.92 11 6.75 16.9 0.219 0.688 0.439 1.38 0.665 2.08 1.46 4.85 1.46 4.85 0.335 7.1-5.99-4.17-11-8.82-15.9-14.2-0.7-0.752-1.4-1.5-2.12-2.28-4.45-4.82-8.72-9.72-12.8-14.9-2.07-2.59-4.21-5.1-6.38-7.61-8.44-9.81-14-19.1-18.8-31.1-2.08 0.31-4.17 0.623-6.25 0.938-1.74 0.261-1.74 0.261-3.52 0.527-2.47 0.408-4.83 0.874-7.23 1.54 0.62 4.72 1.5 9.3 2.56 13.9 1.85 8.69 3.83 20-0.562 28.1-0.186-0.694-0.372-1.39-0.563-2.1-4.75-17.6-9.88-32.7-19.5-48.2-7.65-12.3-14.1-24.7-19.2-38.3-3.53-9-8.4-15.9-15.8-22.1-2.92-2.44-4.75-4.21-6.65-7.54-1.95-3.12-1.95-3.12-5.62-3.51-1.29-0.00516-2.58-0.0103-3.91-0.0156-5.03-0.0604-8.91-0.478-13.6-2.25-4.24-0.753-6.68 0.136-10.2 2.31-8.58 6.15-14.9 14.8-21.4 23.1-5.47 7.06-11.1 13.9-16.9 20.8-1.27 1.53-2.54 3.06-3.81 4.59-5.93 6.97-13 12.5-20.3 17.9-6.38 4.75-11.4 8.75-15.1 15.9-6.29 11.9-16.2 18.1-28.6 22.7-8.96 3.53-12.6 10.9-16.7 19.2-4.27 8.39-8.78 16.6-13.5 24.8-0.599 1.05-1.2 2.09-1.82 3.17-0.566 0.969-1.13 1.94-1.71 2.94-0.501 0.861-1 1.72-1.52 2.61-1.45 2.1-1.45 2.1-4.45 4.1-0.403-6.18 1.03-11.1 3-16.9 0.429-1.31 0.429-1.31 0.867-2.65 0.702-2.14 1.41-4.28 2.13-6.41-18.9 3.48-27.9 10.9-38.7 26.1-0.832 1.16-0.832 1.16-1.68 2.34-2.96 4.13-5.84 8.29-8.63 12.5-1.82-3.64 0.323-7.4 1.52-11.1 4.93-13.6 13.6-30.2 27.2-36.8 1.39-0.624 2.78-1.24 4.18-1.85 11.6-5.11 18.7-10.6 25.4-21.6 5.85-9.4 12.8-13.9 22.5-18.8 7.67-3.93 11.8-7.82 15.8-15.6 6.08-11.2 15.5-18.5 25.3-26.3 8.43-6.95 15.1-15 21.7-23.6 5.38-6.98 10.9-13.8 16.7-20.4 1.53-1.75 3.04-3.51 4.52-5.3 16-19.4 39.8-25 62.8-13.3z" fill="#499DCE"/>
<path transform="translate(969,753)" d="m0 0c-0.99 0.33-1.98 0.66-3 1-0.396 0.862-0.396 0.862-0.801 1.74-1.74 3.28-4.49 5.17-7.39 7.38-0.623 0.48-1.25 0.96-1.89 1.45-11.7 8.92-24.1 16.3-37 23.4-9.14 4.99-17.7 10.7-25 18.2-4.23 2.71-7.73 2.36-12.6 2.2-0.961-0.0162-1.92-0.0324-2.91-0.0491-3.13-0.0621-6.26-0.158-9.39-0.263-1.05-0.0329-2.1-0.0657-3.19-0.0996-7.57-0.245-15.1-0.565-22.7-0.9-2.26-0.0968-4.52-0.193-6.78-0.289-5.45-0.232-10.9-0.469-16.3-0.711v-3c1.4-1.21 1.4-1.21 3.38-2.38 0.73-0.441 1.46-0.881 2.21-1.34 0.796-0.464 1.59-0.929 2.41-1.41 0.814-0.484 1.63-0.969 2.47-1.47 2.5-1.48 5.02-2.95 7.53-4.41 0.73-0.427 1.46-0.854 2.21-1.29 8.72-5.09 17.5-9.62 26.8-13.7 0.79-0.371 1.58-0.742 2.39-1.12 6.9-3.22 13.9-5.91 21.1-8.38 1.13-0.389 2.27-0.779 3.44-1.18 14.4-4.86 28.8-8.63 43.7-11 1.66-0.258 3.32-0.522 4.98-0.791 2.8-0.453 5.6-0.889 8.41-1.32 0.869-0.14 1.74-0.28 2.63-0.424 5.38-0.793 9.94-0.744 15.3 0.174z" fill="#499DCE"/>
</svg>
