<?xml version="1.0" encoding="UTF-8"?>
<svg version="1.1" viewBox="0 0 900 900" width="1280" height="1280" xmlns="http://www.w3.org/2000/svg">
<path transform="translate(230,402)" d="m0 0h21l3 7 6 33 2 13 4-16 6-36h33l-1 9-2 4h-4v68l5 2 2 3v9l-2 1h-11l-17-1-2-1 1-5 6-11v-57l-3 12-6 36-2 9 2 1-3 13h2l-1 2-4 1h-11l-2-2-11-60-3-11 2 55 6 14-1 5h-11l-13-1-1-1v-8l6-5v-68l-6-4v-9z" fill="#020202"/>
<path transform="translate(416,400)" d="m0 0h11l8 5 4-1 2-2h5l1 1 1 13v20l-1 4-9-1-4-19-3-5-7-2-5 3-3 8v21 2 33l3 6h8l3-3v-22l-7-2-1-10 1-1h31l2 2v9l-4 2-1 3-1 7v21l-1 7h-9l-1-4-6 1-6 4h-15l-8-5-5-8-3-9-2-14v-24l2-14 4-12 6-8 5-4z" fill="#030303"/>
<path transform="translate(469,403)" d="m0 0h33v9l-3 3h-2v67l1 4 3 1h8l3-3 1-3v-64l-6-5v-8l1-1h25l-1 10-2 1-2 9-1 56-2 9-4 6-9 6-5 1h-12l-9-3-5-5-4-9-1-9-1-61-6-2z" fill="#010101"/>
<path transform="translate(583,402)" d="m0 0 5 1 7 30 10 48 2 5 4 4 1 8-6 2h-12l-16-1-2-1-1-10 6-2h2l-1-12-1-3-16-1-1 9-2 6 7 2 1 3v8l-4 2-22-2-1-1v-8l4-3h2l4-19 11-50 3-13 1-1zm-10 26-5 27 1 4h11l-4-28-1-3z" fill="#020202"/>
<path transform="translate(355,402)" d="m0 0 5 2 6 25 10 48 3 9 4 5 1 6-2 2h-24l-9-1-1-1v-9l7-1-1-17h-17l-1 15 5 2 1 3v8l-2 1h-12l-11-1-2-1v-7l6-6 4-15 12-53 3-13zm-9 25-1 1-5 27v3l2 1h10l-1-12-3-19z" fill="#010101"/>
<path transform="translate(643,402)" d="m0 0h8l1 10-4 4v2h-2l3 7 4 14 3-9 3-11-1-4-3-3-2-10h12l16 1-1 7-8 16-8 22-2 9v27l5 3 2 4v7l-7 2-24-1-7-2v-6l8-8v-22l-2-10-9-24-7-14-3-5v-5zm2 14 1 2z" fill="#020202"/>
<path transform="translate(510,331)" d="m0 0 21 3 21 5 18 6 20 9 15 8 5 1h45l7-7h3v8l-3 4-10 2h-48l-28-14-15-6-24-7-27-6-1-5z" fill="#020202"/>
<path transform="translate(539,543)" d="m0 0 4 1 2 6 20 1h35l60 1 7 6 2 7-4 2-4-2-1-5-4-1-111-1-2 9h-5l-1-21z" fill="#050505"/>
<path transform="translate(362,334)" d="m0 0h7v5l-15 4-21 6-20 8-16 8-7 4-4 1h-43l-10-2-3-3-2-6 2-3 4 2 3 4 9 1h38l10-4 21-11 15-6z" fill="#010101"/>
<path transform="translate(348,544)" d="m0 0 5 1v23l-5-1-1-1-1-8h-94l-20 1-3 3-1 2h-5l1-7 5-4 2-1 116-1v-6z" fill="#0D0D0D"/>
<path transform="translate(493,540)" d="m0 0 10 1 7 6 2 5v15l-4 8-5 4-7 2-9-2-5-6-3-7v-12l4-8 6-5zm1 3-6 4-3 8 1 12 3 6 3 3h8l4-4 2-12-2-11-4-5z" fill="#030303"/>
<path transform="translate(417,540)" d="m0 0h7l8 4 4 7v13l-4 9-4 5-10 6-8 2-4-1 15-8 6-8 2-14-3-9-4-2h-6l-5 5v8l1 4 5 2 10 1-2 4-3 1h-8l-7-4-3-5v-8l5-8z" fill="#040404"/>
<path transform="translate(385,311)" d="m0 0h25l4 4 1 6-5-2-5-4-9-1-1 2-1 13 10-3 2-3 2 5-1 5h-8l-5-2 1 16h7l9-3 5-5v8l-5 3-14 1-9-1h-5v-2l3-2v-30z" fill="#020202"/>
<path transform="translate(452,540)" d="m0 0h10l7 4 3 6v5l-13 13-6 4v2h12l5-3 1-2h2v8l-1 2-4 1h-26v-4l11-8 9-9 1-2v-7l-4-4-6-1-6 3-4 4h-2l2-5 7-6z" fill="#030303"/>
<path transform="translate(433,310)" d="m0 0h7l7 2 1 2v7l-4-2-4-5-4-1-5 4v6l6 2 8 4 4 5v10l-4 5-5 2-10-1-6-3v-8l3 1 4 5 7 2 3-1 2-6-5-5-10-6-4-4 1-8 5-6z" fill="#020202"/>
<path transform="translate(488,310)" d="m0 0 6 1 2 5-1 4-9-5-6-1v34h3l-1 3-7-1h-7l3-4v-32l-10 2-2 4h-3v-7l1-2z" fill="#020202"/>
<path transform="translate(384,541)" d="m0 0 4 1 1 33 6 3v2h-14l-6-1 1-2 5-1v-26l-3-3-3-1v-2z" fill="#010101"/>
<path transform="translate(499,343)" d="m0 0 5 1v6h-6l-1-5z" fill="#080808"/>
<path transform="translate(423,415)" d="m0 0 5 1-1 4z" fill="#444"/>
<path transform="translate(652,419)" d="m0 0h1v6h-1z" fill="#B2B2B2"/>
<path transform="translate(347,471)" d="m0 0" fill="#B2B2B2"/>
<path transform="translate(340,471)" d="m0 0" fill="#B2B2B2"/>
<path transform="translate(653,429)" d="m0 0" fill="#B2B2B2"/>
<path transform="translate(654,426)" d="m0 0" fill="#B2B2B2"/>
<path transform="translate(419,419)" d="m0 0" fill="#B2B2B2"/>
<path transform="translate(420,418)" d="m0 0" fill="#B2B2B2"/>
</svg>
