<?xml version="1.0" encoding="UTF-8"?>
<svg version="1.1" viewBox="0 0 900 900" width="1280" height="1280" xmlns="http://www.w3.org/2000/svg">
<path transform="translate(427,31)" d="m0 0h8l15 5 33 3 25 3 30 9 21 7 32 10 28 10 22 9 17 9 25 20 13 11 7 7 6 7 8 7 18 18 7 8 23 23 16 22 12 14 10 12 9 14 11 25 6 17 5 26 18 56 11 35 3 8 1 6 1 16 1 45-3 25-9 38-11 38-11 33-8 20-1 8 1 1v10l-5 7-10 6-8 4-19 13-5 4-1 2h-2l-2 4-6 9-6 11-16 16-12 9-8 7-12 9-11 9-13 9-16 10-10 6-18 8-9 7-10 7-13 6-20 8-32 11-28 6-39 6-28 2h-11l-15-1h-13l-29-3-38-7-27-7-22-8-13-4-21-9-21-11-23-14-24-16-14-11-11-10-8-7-10-9-26-26-9-11-12-15-14-21-12-21-12-22-13-28-7-20-7-24-6-22-4-22-3-12-3-32v-53l2-24 6-29 11-44 9-27 12-29 13-24 10-16 8-12 10-14 13-15 2-3h2l2-4 8-7 16-15 13-13 14-11 7-7 16-12 25-14 16-10 14-8 29-11 15-6 11-4 19-5 36-11 45-9zm-29 39-19 1-15 2-19 4-38 13-22 9-21 10-23 13-11 6-13 11-13 9-14 10-10 9-12 12-7 8-6 8-7 11-14 18-16 26-12 20-16 27-8 18-7 28-8 41-3 22-1 14v31l2 9-2 3 1 17 6 39 6 26 10 33 9 25 12 24 14 23 11 15 10 14 14 19 7 9 10 11 8 7 16 15 13 10 13 11 13 9 22 14 23 12 19 8 24 9 13 5 22 6 27 5 32 4 43 3h16l8-1h10l2-1 16-2 8-2 13-2 12-4 9-4 15-4 9-3 9-2 10-3 16-7 23-12 10-9 8-7 1-2v-15l-4-25 1-14-6-2h-13l-4 1-1 13h-1v-82l2-1 1 16 1 5 6 2v1l-6-2-1 3v40l1 1 16 1 5-2 1-8v-27l-1-7 2-8-1-7v-9l3 2 2 15 6 3 5 2 3-12 4-5 12-5 3-1-1-9-3-1-22-2h-9l6 12 1 4-5-4-4-6-9-7-3-6 1-11-6-8h-2v5l-4 1h-16l-20 1-7 2-1 3-7-1-6-4-6-1-3-7-2-7-9-9-9-7-7-7-1-3 13 2 8 5 7 6h1l1-9 2-52 2-37-1-110-2-38v-11l1-2 8-2h31l21 1 1 11h-50l-1 1v107h11l16-2 14-1 1 3h2v-2l5 3 6 9 3 7 1 12v2l-9-2-3-3-3-14h-34l-9 1-2 78v60l1 4h16l1-4-4-4 1-2 9-2 2-1h25l8 2 2 4 6 8 7-1 8 5 1 3h-7l-5 1 1 16 2 3 11-2 3-1h13l14 1 6-7-13-7-10-10-4-7-1-4-1-16-2-81v-15l1-5 2-58v-50l2-16 4-10 7-8 5-4 9-4h16l8 4 7 10 4 9 1 5 1 16v10l-8-1-2-22-5-12-8-7-5-2-8 1-10 6-6 9-2 7-1 9-1 64-1 31v114l2 12 4 8 8 8 13 5h8l7-5 4-8 2-12 4-35 1-2h8l-4 38-1 15 3 1 24-6 16-8 6-7 3-11 2-24v-18l1-19 2-8 4-6 2-7 3-19 3-7-1-8-1-5v-38l1-5v-16l2-5-1-6-6-19-10-33-11-34-3-11-8-23-8-14-9-12-10-12-9-11-9-9-11-9-16-16-11-9-13-11-14-10-15-11-7-4-8-1-14-9-18-13-17-7-20-7-19-7-13-3-9 1-12 5-11 5-10 3-16-6-6-5-7-8-7-4-22-2zm283 582-5 5-2 7v24l2 11 2 1 7-8 3-3-2-6-4-4v-10l2-9 3-5 9 1-1-3-2-1zm-16 19-8 5-1 2v20l1 13 2 1 1-5 6-1 5-3v-13l-2-19z" fill="#EB939D"/>
<path transform="translate(159,320)" d="m0 0 7 1 7 10 12 23 11 22 8 13v2l5-5 8-15 13-28 6-14 3-6 3-2h6l1 1v98l-1 77v67l-1 35-1 16-7 1-3-2 1-24 1-18 1-120v-97l-3 3-12 20-8 16-7 11-5 4-6-8-8-16-13-25-7-11-3-2 1 22 1 28v213l-8-1-1-1v-200l-3-56-3-19-2-9 2-3z" fill="#0A0506"/>
<path transform="translate(477,323)" d="m0 0 6 1 20 11 12 11 7 12 2 7 1 12v44l-1 19-4 15-6 10-11 12-2 3 9 7 10 8 4 6 1 3v58l-1 21-3 9-5 5-8 6-22 11-8 3-6-1-8-10v-22l1-7 4-76v-44l-2-73v-48l2-5 5-6zm3 13-2 5v74l1 26v19l-1 3 1 11 1 2 9-3 10-6 7-7 6-12 3-12v-64l-3-12-6-9-9-8-14-7zm2 152-2 10-3 48-3 45v10l1 2h8l15-6 11-6 4-4 2-5 1-9v-65l-4-7-10-7-11-5z" fill="#0A0506"/>
<path transform="translate(324,328)" d="m0 0 5 1 3 8 11 100 9 71 7 49 8 47v8l-1 1h-9l-2-6-4-31-1-3-27 2-28 3-4 24-3 10-4 1-4-2-1-2 1-13 7-39 8-53 9-65 6-46 5-53 4-8zm-2 48-5 35-6 39-8 59-6 42v11l8 4h8l32-3 4-2-4-33-13-96-4-37-1-14-1-5z" fill="#080405"/>
<path transform="translate(578,323)" d="m0 0h31l19 1 3 3 1 9-1 1h-50l-1 107 27-3h14l3 3v-2l4 1 6 7 5 11 1 12-1 2h-7l-6-5-2-9v-5l-43 1v37l-1 41v64l42-2 13-1 2 3v13l-5 1h-16l-20 1-7 2-3 3-6-2-5-3-7-2-3-7-2-7-8-8-9-7-8-8-1-4 14 2 8 5 7 6 1-8 2-52 2-37-1-110-2-38v-11l2-3z" fill="#080405"/>
<path transform="translate(699,322)" d="m0 0h16l8 4 8 11 4 9 1 5 1 16-1 10h-8l-1-1-2-22-5-12-7-6-5-2-8 1-10 6-5 8-2 7-1 9-1 64-1 31v114l2 12 4 8 7 7 13 5h8l6-4 4-8 2-12 4-35 2-3 8 1 1 3-5 44-3 10-6 9-6 5-10 2-15-1-10-6-10-10-4-7-1-4-1-16-2-81v-15l1-5 2-58v-50l2-16 4-10 7-8 6-5z" fill="#080405"/>
<path transform="translate(393,323)" d="m0 0h7l2 2 1 8 1 19 1 64 8-4 13-4 6-1 2 1-1 4-10 7-16 8-3 1-3 29-1 15 1 53 2 71 1 6h8l14-3h22l9 2 3 3v6l-5 3-16-2h-15l-24 5h-6l-2-3-1-6 1-8v-48l-1-49v-28l2-33v-39l-1-51v-27z" fill="#090506"/>
<path transform="translate(687,654)" d="m0 0 9 2 1-2 3 4v57l-2 8-4 5-7 1-9-3-2-3v-22l9-10 2-4-4-6-2-2v-10l2-9z" fill="#EA939D"/>
<path transform="translate(719,648)" d="m0 0h8l8 4 5 7 2 21-1 11-3 6-5 4-7 4h-2l-1 3-2 23-4-2 2-38v-39l-1-3z" fill="#E68E99"/>
<path transform="translate(51,473)" d="m0 0h2l2 6 1 9 1 4 4 1 2 7 2 10 5 26 2 12 1 7 1 5-2 1-1-4-2-1 6 15v6l-3-1-1-6-4-1-1-4 1-3h-3l-1 2-1-4h4l-5-3-2-5-3-12-1-3-2-9v-5l-3-9-2-17v-6l1-7-2-4v-2h2l-1-4z" fill="#F7C1C4"/>
<path transform="translate(654,644)" d="m0 0 4 3 2 15 5 2 5 3 1-9 3-6 5-4 2-1h12l8 5 3 6v52l-3 15-5 6-4 1h-9l-6-3-4-4-2-12-1-23-1-8v-11l-8 3-5 3-3-1-1-7 2-8-1-7v-9zm27 8-5 5-2 7v24l2 12v23l3 4 11 2 5-2 4-6 1-6v-57l-5-5-2-1z" fill="#10090A"/>
<path transform="translate(505,647)" d="m0 0 4 1 4 9 9 30 7 27v4h2l1-13 1-29v-29h3v73l-1 12-4-1-3-7-4-13-11-40-4-10 1 10v18l-2 41h-3v-23l1-12v-27l-2-20z" fill="#160B0D"/>
<path transform="translate(615,526)" d="m0 0 12 1 10 4 3 9 2 13-2 2h-11l-10-9-7-10v-6z" fill="#EB939D"/>
<path transform="translate(595,647)" d="m0 0h11l6 4 2 5-1 5-5-5-4-5-5-1-5 3-1 7 13 27 6 17 1 4v17l-5 5-9 3-8-1-3-3-1-3v-11l3-1 1 1 1 10 2 3 4 1 8-3 3-8-2-12-6-18-10-21-3-8v-6l5-5z" fill="#130A0B"/>
<path transform="translate(551,647)" d="m0 0h23l1 4h-20v31h13l2 1-1 3h-14v13l-1 28h21l1 4-10 1h-14l-2-2z" fill="#241215"/>
<path transform="translate(719,648)" d="m0 0h8l8 4 5 7 2 21-1 11-3 6-5 4-7 4h-2l-1 3-2 23-4-2 2-38v-39l-1-3zm4 3-1 2v48l3 1 8-6 4-5 1-4v-12l-1-12-3-7-5-4z" fill="#030202"/>
<path transform="translate(628,646)" d="m0 0h2l1 2 1 19 6 1v3l-5-2-1 2v40l16 1 4-1 2-10h1l1 5v27l-2 9-2-3-1-10 1-12-5-1h-17l1 3-1 10h-3v-82z" fill="#251417"/>
<path transform="translate(839,348)" d="m0 0 2 1 15 47 10 30 1 6v25h-1l-2-9-1-12-3-8v-4h-2l-1-12-3-1-7-23-8-32z" fill="#A45163"/>
<path transform="translate(461,649)" d="m0 0h4l-6 39-6 43-4 1-3-5-7-30-3-7v-7h4l3 8 4 20 4 9 2-19 7-49z" fill="#1A0D10"/>
<path transform="translate(217,116)" d="m0 0 2 2h-2l-1 7-4 7-4 4-5 2v2h-2l-2 4-5 3-3 2h-3v2l-4 1-1 4-5 2-3-1-1-6 1-2 6-2 7-8-2-1 6-3 3-2 3-5 11-5 2-4z" fill="#F8C2C5"/>
<path transform="translate(409,648)" d="m0 0 5 2 3 11 3 17 8 34 3 9 2-30h2l1 10v15l-3 15-4 1-2-2-13-60-4-18z" fill="#1A0D10"/>
<path transform="translate(624,442)" d="m0 0 4 1 6 7 5 11 1 12-1 2h-7l-6-5-2-9v-5h-4l1-7 1-5h2z" fill="#EA939D"/>
<path transform="translate(537,571)" d="m0 0 14 2 8 5 8 7v13h-2l-1 2-7-8-11-9-8-8z" fill="#E7909A"/>
<path transform="translate(822,649)" d="m0 0h2v6l3 1v10l-5 7-10 6-8 1 2-4 5-12 4-6h2l2-6z" fill="#A45264"/>
<path transform="translate(403,397)" d="m0 0h1l1 19 8-4 13-4 6-1 2 1-1 4-10 7-16 8-4 1z" fill="#E996A0"/>
<path transform="translate(75,577)" d="m0 0h2l3 11 4 8h2l1 7 2 1-1 2-1 4h3l1 8 3 1-2 1 3 5v5l-3 1-2-2v-6l-3 1-2-6 1-2-4-2-1-4 1-6-4 1v-12h-2l-1-7 1-1-2-7z" fill="#F8C2C5"/>
<path transform="translate(654,644)" d="m0 0 4 3 2 15 5 2 5 3v4l-9 3-5 3-3-1-1-7 2-8-1-7v-9z" fill="#150D0E"/>
<path transform="translate(707,141)" d="m0 0 5 2 23 23 7 8 23 23 4 5-1 3-5-5-6-7-8-7-11-10-9-11-22-22z" fill="#AA5869"/>
<path transform="translate(742,740)" d="m0 0 2 1-5 7-11 9-13 10-11 9-13 9-4-1 14-10 7-7 11-9 8-7 10-8z" fill="#AB596A"/>
<path transform="translate(437,682)" d="m0 0 4 2 3 11 3 16 4 9 1 1 1 10-4 1-3-5-7-30-3-7v-7z" fill="#11080A"/>
<path transform="translate(710,571)" d="m0 0 10 1 1 3 2 1-3 1-1 3-6 6h-6l-6-4-2-5 8-5z" fill="#EC96A0"/>
<path transform="translate(517,231)" d="m0 0 6 2 3 3 1 3v8l-4 4h-6l-3-4-1-4v-9l1-2z" fill="#E7919B"/>
<path transform="translate(481,657)" d="m0 0h3l1 5v67l-4 1v-18l1-16v-21z" fill="#914657"/>
<path transform="translate(508,678)" d="m0 0h1v28l-1 24h-3v-23z" fill="#12090B"/>
<path transform="translate(657,766)" d="m0 0h1v8l-4 6-5 5-4 3h-2v2l-7 2 3-6 14-12 3-4z" fill="#A45264"/>
<path transform="translate(518,46)" d="m0 0 10 2 35 11 5 2-2 2-18-5-10-3-8-3-6-1v-2l-5-1z" fill="#A85567"/>
<path transform="translate(637,540)" d="m0 0h3l2 13-2 2h-11l-8-7 1-3 10 6 7 2 1-5h-3z" fill="#A55264"/>
<path transform="translate(433,691)" d="m0 0h2l1 10v15l-2 9-2-1v-17z" fill="#140A0C"/>
<path transform="translate(678,789)" d="m0 0 2 1-5 5-10 6-9 4h-6l4-4 16-7z" fill="#AD5A6B"/>
<path transform="translate(483,695)" d="m0 0h1l1 34-4 1v-18l1-16z" fill="#1F1013"/>
<path transform="translate(659,662)" d="m0 0 6 2 5 3v4l-9 3-2 1 1-4z" fill="#AA5969"/>
<path transform="translate(654,644)" d="m0 0 4 3 1 12h-3l-1 2-2-7v-9z" fill="#B56775"/>
<path transform="translate(98,639)" d="m0 0 5 2 2 5 5 7h-2l-1 2-5-3-1-7-2 2-1-2z" fill="#F7C1C4"/>
<path transform="translate(507,665)" d="m0 0h2l1 6v18l-3-3z" fill="#562A34"/>
<path transform="translate(265,80)" d="m0 0h6l-3 3h-4v2l-7 2v2l-6 1v-2z" fill="#B46070"/>
<path transform="translate(708,767)" d="m0 0m-1 1m-1 1m-1 1m-1 1m-1 1m-1 1m-1 1m-1 1 1 3-10 7-4-1z" fill="#B46070"/>
<path transform="translate(66,572)" d="m0 0 4 5 1 4 1-2 1 3h-2l1 2v7l-2-2-4-11z" fill="#F8C2C5"/>
<path transform="translate(637,540)" d="m0 0h3l2 13-2 2-4-1 2-1 2-5h-3z" fill="#B36171"/>
<path transform="translate(75,577)" d="m0 0h2l3 13-2 3h-2l-1-7 1-1-2-7z" fill="#F7BFC3"/>
<path transform="translate(770,707)" d="m0 0h2l-1 5-4 7h-3l2-6z" fill="#B15D6E"/>
<path transform="translate(615,526)" d="m0 0h4l-2 6-3 3h-2l1-7z" fill="#733946"/>
<path transform="translate(673,666)" d="m0 0h1v17l-3 7h-1v-7l2-4z" fill="#A05061"/>
<path transform="translate(682,625)" d="m0 0h7l2 3 1 2h-5v-2l-6 1v-3z" fill="#8F4455"/>
<path transform="translate(848,376)" d="m0 0 2 1 3 9-1 5-3-4-1-7z" fill="#2D1A1D"/>
<path transform="translate(517,231)" d="m0 0 1 4-3 7-2-2v-6l1-2z" fill="#9A4E5E"/>
<path transform="translate(537,571)" d="m0 0 7 3-1 4-4-2z" fill="#A85868"/>
<path transform="translate(624,437)" d="m0 0 3 1v3l-3-1z" fill="#61474C"/>
<path transform="translate(481,648)" d="m0 0h3v3h-3z" fill="#361A20"/>
<path transform="translate(685,688)" d="m0 0" fill="#F8C2C5"/>
</svg>
