<?xml version="1.0" encoding="UTF-8"?>
<svg version="1.1" viewBox="0 0 900 900" width="1280" height="1280" xmlns="http://www.w3.org/2000/svg">
<path transform="translate(214,387)" d="m0 0h9l9 3 6 7 5 16v2l10-5 3-1h11l-1 7-6 16 7-6 8-7 15-9 3-1h11l7 6-1 7-7 20-13 29-10 26-4 15-4 17h-4l-6-9-2-5v-16l4-15 10-24 7-14 3-9 1-6-2-2h3v-4h-6l-12 11-9 12-9 15-8 15-7 16-6 11-10 5-19 4-15 6h-13l-11-4-10-4-9-8-4-8-1-5v-14l3-15 6-16 9-17 9-12 9-10 14-11 12-6 7-2zm-4 9-9 6-8 11-1 3 3-1 5-5 2-1-12 16-3 7-1 9 1 2 7-1 7-7 11-17 4-8-1-7-7 1 7-4v-4zm-19 20m47 1-4 6-8 10-7 7-9 7-6 8-13 7h-6l-2-1h-15l-3 4-1 4v17l4 11 4 3 4 1h8l9-3 10-6 10-9 10-13 7-14 6-18 1-8-4 4-5 6-10 7h-2l12-9 6-8v-2h2l3-8z" fill="#1C1615"/>
<path transform="translate(636,327)" d="m0 0h7l1 1v10h4l-1 8-11 25-6 12-7 16-5 12-5 9-1-2 3-12-3 4-9 20-15 36-6 16-3 11-5 14-4 21v4l6-26 8-23 3-4-2 10-6 24-3 15-2 15-4 1-8-6-6-7-4-13-1-12-12 9-9 4h-10l-6-3-9-7-3-8v-16l3-12 9-21 10-16 8-10 13-13 13-9 10-4 5-1h12l6 1 2-6 19-43 6-13 6-7 7-3zm-55 81-10 3-11 9-9 12-8 13-10 21-5 16v9l1 2 4 1 10-5 10-11 10-15 9-16 5-11 7-18v-3h-8l8-5-1-2zm-27 81-4 3v2l-4 2-5 6-14 11-3 3 7-1 9-5 11-9 4-6 1-4z" fill="#1B1514"/>
<path transform="translate(738,399)" d="m0 0h12l3 2-2 6 3 1v3l-16 5-10 6-8 10 4 4 12 8 5 4 4 6 2 8-3 10h2l2-7 2-1-2 11-5 8-9 10-10 10-12 9-13 8-7 3-5 1h-11l-5-3-7-4v-3l23-11 11-8 10-9 7-8 4-8v-9l-4-5-9-7-10-9-2-3-2-8-1-2-8 3-4 6v8l-4 18-5 12-8 14-8 10-2 3h-2v2l6-3 10-11 3-3-1 4-6 10-7 8-14 7h-13l-10-3-9-6-6-7-3-7-1-6v-14l2-13 5-12 11-17 9-10 13-9 7-3 14-1 9 2 3 6h12l8 2-2 2-8 4-4 5v3l8-7 4-2 7-2 11-9 15-8 9-3zm-6 12-9 6-6 8-1 6h3l4-6 1-3 4-2v-2l4-2 5-5zm-73 5-10 5-10 11-8 13-6 13-4 16v12l5 10 6 4 7-1 8-6 6-10 4-11 3-15v-13l-4-10-3-3-7 1 10-9 7-6zm83 60m-1 1m-1 1m-2 2-22 22h3l8-6 12-12 1-3z" fill="#201A19"/>
<path transform="translate(460,406)" d="m0 0h8l8 2 7 10v8l-8 16-8 8-11 8-16 6-15 4-1 2v15l3 8 3 2h12l7-3 11-9 7-8 5-5 1 1v7l-4 8-6 8-1 2 6-3 6-8 3-6h1l-1 7-13 19-6 5-17 6h-12l-9-2-3-3 5-1-9-1-6-5-5-8-2-7v-9l3-15 4-14 10-16 6-8 14-11 10-6zm-2 9-5 3-7 8-8 13-6 12-1 4 7-1-2-1 5-9v-2h2l3-5 12-15 6-4-2-3zm2 7-9 10-12 19-1 2 7-2 7-6 9-14 2-4v-5z" fill="#201A19"/>
<path transform="translate(358,360)" d="m0 0h9l1 4-5 12-1 6 8-15h1l-1 8-1 7-1 4 7 4-1 5-5 4h8l2 3-9 4h-7v-4l-11-1-5 10-18 43-10 26-6 22-2 17v5l3-8h1v20l-3-1v-2l-5-2-6-10-4-10-1-7v-10l5-23 7-21 8-18 7-14 3-8v-9l-12-2v-4l8-4 4-1h9l2-6 8-16 7-6z" fill="#1C1615"/>
<path transform="translate(738,399)" d="m0 0h12l3 2-2 6 3 1v3l-16 5-10 6-8 10 4 4 12 8 5 4 4 6 2 8-3 10h2l2-7 2-1-2 11-5 8-9 10-10 10-12 9-13 8-7 3-5 1h-11l-5-3-7-4v-3l23-11 11-8 10-9 7-8 4-8v-9l-4-5-9-7-10-9-2-3v-9l2-5 2-4 10-8 15-8 9-3zm-6 12-9 6-6 8-1 6h3l4-6 1-3 4-2v-2l4-2 5-5zm10 65m-1 1m-1 1m-2 2-22 22h3l8-6 12-12 1-3z" fill="#1C1616"/>
<path transform="translate(412,405)" d="m0 0 4 1 3 5v11l-5 12-6 8-7 6-5 2h-3l1-5 3-18-1-2-4 1-11 11-11 17-8 16-8 20-4 8v2h2l2-6 6-14 5-10 2-1-3 11-12 27-4 6-3 3-7 1-14-7 1-7 6-13 17-41 13-32 5-6 8-4h8l2 1-1 7-5 12v4l7-12 1-3h2v2l12-7z" fill="#1F1918"/>
<path transform="translate(749,464)" d="m0 0 1 2-2 9-5 8-9 10-10 10-12 9-13 8-7 3-5 1h-11l-5-3-7-4v-3l3-1v3l12-1 18-6 15-8 10-8 10-9 6-7 5-9 1 4h2l2-7zm-7 12m-1 1m-1 1m-2 2-22 22h3l8-6 12-12 1-3z" fill="#C2B9AC"/>
<path transform="translate(643,333)" d="m0 0h1v5h4l-1 8-11 25-6 12-7 16-5 12-5 9-1-2 3-12-3 4-9 20-5 12-1-3 5-13 17-40 9-20 13-29z" fill="#EEECE9"/>
<path transform="translate(471,479)" d="m0 0 1 2-10 15 6-3 6-8 3-6h1l-1 7-13 19-6 5-17 6h-12l-9-2-3-3 5-1v-1l18-4 10-5 10-8 7-7z" fill="#C0B8AA"/>
<path transform="translate(592,451)" d="m0 0 1 3-9 23-3 10-7 20-4 21v4l6-26 8-23 3-4-2 10-6 24-3 15-2 15-4 1-8-6-1-2 3 1 3-19 12-36 5-13z" fill="#C1B9AB"/>
<path transform="translate(211,494)" d="m0 0h2l-1 6-4 6v2l8 2v1l-16 3-15 6h-13l-11-4-5-2 3-1h14l14-4 16-8z" fill="#C5BDB0"/>
<path transform="translate(200,409)" d="m0 0h2l-2 4-10 14-2 5-1 11 7-1-4 4-12 6-7 1 1-6 12-24 8-11 3-2-3 6z" fill="#BEB6A7"/>
<path transform="translate(366,469)" d="m0 0 1 2-6 16-5 11-4 9-4 6-3 3-7 1-14-7v-1l12-1 6-3 6-10 11-23 2-1-3 9-5 12-3 6v2h2l2-6 6-14 5-10z" fill="#EFEDEA"/>
<path transform="translate(668,486)" d="m0 0 1 3-7 11-7 8-14 7h-13l-10-3-5-3 2-1h15l10-3 9-6 9-9v3l-6 8h-2v2l6-3 10-11z" fill="#EFEDEA"/>
<path transform="translate(598,257)" d="m0 0 5 1 2 6 7 2-1 5-3 4v7l-4 1-5-2-7 1-1-9-2-4 6-3 1-7z" fill="#BEB5A6"/>
<path transform="translate(281,257)" d="m0 0 7 1 1 2v6l9 2-1 4-5 1v9h-3l-3-2-5-1v2l-4 1 1-4 1-2-3-1v-2l-4-2 1-4h7l-1-9z" fill="#BFB6A8"/>
<path transform="translate(492,240)" d="m0 0 4 1 3 5h3l2-4 2 1v4l3 1v3l-5 4-2 4-9 3-4-1-3-6v-2l-4-2 1-3 8-1z" fill="#C3BAAD"/>
<path transform="translate(388,238)" d="m0 0 3 1 1 8 8 1 1 3h-2l-2 5v6l-4 2-9-2-4-8-3-3 1-3 8-2 1-7z" fill="#BDB4A5"/>
<path transform="translate(645,338)" d="m0 0h3l-1 8-11 25-6 12-7 16-5 12-5 9-1-2 3-11h2l1-5 4-9 6-13 1-5 14-32z" fill="#B9AFA0"/>
<path transform="translate(716,498)" d="m0 0 3 1-4 6-3 1-3 3-4 3-6 2-13 5-14 3-8-5v-3l3-1v3l12-1 18-6 15-8z" fill="#F3F1EF"/>
<path transform="translate(555,492)" d="m0 0h1l-2 31h-1l-2-17-12 9-9 4h-10l-6-3-1-2 12-3 9-5 2 1-11 8 6-1 9-5 10-8 4-6z" fill="#B6AC9D"/>
<path transform="translate(236,396)" d="m0 0 2 1 5 16v2l6-2-6 12-7 16-1-3 1-6-8 9-10 7-3 1 1-3 11-8 7-10h2l2-9-3 3 2-10v-11z" fill="#BBB2A3"/>
<path transform="translate(471,479)" d="m0 0 1 2-6 9-3 4-1 4-8 6-14 7-12 3-5 1-6-3v-1l5-1v-1l18-4 10-5 10-8 7-7z" fill="#F2F1EF"/>
<path transform="translate(586,479)" d="m0 0 1 3-8 31-3 15-2 15-4 1-5-4h2l1-8h2l6-26 8-23z" fill="#C3BBAF"/>
<path transform="translate(370,367)" d="m0 0h1l-1 8-1 7-1 4 7 4-1 4-5-2-15-1 5-12 5-11 1 3-3 7v4z" fill="#BCB3A5"/>
<path transform="translate(751,400)" d="m0 0 2 1-2 6 3 1v3l-16 5-10 6-8 10-3-1h2l2-5 10-10 5-4-4-2 10-5 8-3z" fill="#F5F4F3"/>
<path transform="translate(211,494)" d="m0 0h2l-1 6-4 6h-2v2l-5 1-9 3-16 6h-2l-1-5 14-4 16-8z" fill="#EEECE9"/>
<path transform="translate(209,446)" d="m0 0 2 1-7 9-13 7h-6l-2-1-13-1v-1l11-2 16-6z" fill="#C5BDB1"/>
<path transform="translate(682,420)" d="m0 0 3 1-6 5-1 5 8-7 4-2 8-2-2 4-2 7-3-2v-2l-8 3-4 6v8l-4 18-5 12-3 4 1-5 4-9 3-12 1-19v-8z" fill="#C3BBAE"/>
<path transform="translate(355,395)" d="m0 0 16 1-2 3h8l2 3-9 4h-7v-4l-11-1-3 3 2-6 1-2z" fill="#B0A696"/>
<path transform="translate(668,486)" d="m0 0 1 3-7 11-7 8-14 7h-9l1-2 6-2 9-4 12-11z" fill="#C1B9AB"/>
<path transform="translate(366,469)" d="m0 0 1 2-6 16-5 11-4 9-3 5h-2v-4h2v-3l-2 1 2-5 3-1 2-6 6-14 5-10z" fill="#C1B8AB"/>
<path transform="translate(665,412)" d="m0 0h5l3 5-15 8-5 5-4 2-4 1 6-7 10-8 1-1-3-2z" fill="#C2BAAD"/>
<path transform="translate(309,506)" d="m0 0h3l-1 18 3-8h1v20l-3-1v-2l-5-2-1-3 2-9z" fill="#E4E1DB"/>
<path transform="translate(462,419)" d="m0 0 1 3-5 3-8 10-10 16-4 2 2-6 3-5h2l1-4 10-12 4-5z" fill="#A09789"/>
<path transform="translate(610,425)" d="m0 0 2 1-4 11-5 11-7 16h-1l1-9 5-12 4-6 2-5zm-6 14 1 2z" fill="#B7AD9D"/>
<path transform="translate(628,382)" d="m0 0 1 4-6 13-5 12-5 9-1-2 3-11h2l1-5 4-9 5-10z" fill="#B8AFA0"/>
<path transform="translate(422,471)" d="m0 0h1l1 14 3 8 3 2 12 1-2 2-9 1-6-4-4-6v-15z" fill="#B8AE9E"/>
<path transform="translate(743,468)" d="m0 0 2 4-1 4-2 2-1 4-3-1-18 18-3-1 5-5 10-9 6-7z" fill="#C7C0B4"/>
<path transform="translate(592,451)" d="m0 0 1 3-9 23-3 9h-2l-1 4-1-3 7-18z" fill="#B7AE9E"/>
<path transform="translate(677,435)" d="m0 0 2 1v8l-4 18-5 12-3 4 1-5 4-9 3-12 1-13z" fill="#B7AE9E"/>
<path transform="translate(736,412)" d="m0 0h8l-1 2-14 7-6 7-3 4-3-1h2l2-5 10-10z" fill="#A69C8E"/>
<path transform="translate(586,479)" d="m0 0 1 3-7 26-3-3 3-11 5-13z" fill="#C3BCB1"/>
<path transform="translate(534,506)" d="m0 0 2 1-11 8-1 2h-3l-1 2-6-3-1-2 12-3z" fill="#E7E3DF"/>
<path transform="translate(472,450)" d="m0 0v3l-7 7-6 3-9 2 3-3 14-8z" fill="#B7AD9D"/>
<path transform="translate(576,407)" d="m0 0h9l2 1-1 5-2 3h-9l3-3 5-3-2-1-10 2 3-3z" fill="#A9A092"/>
<path transform="translate(360,471)" d="m0 0 1 2-8 19-3 6-3 1 3-9 8-16z" fill="#BFB7A9"/>
<path transform="translate(598,257)" d="m0 0 5 1 2 6 7 2-1 3-8-4v-2l-7 1v-5z" fill="#FCFCFC"/>
<path transform="translate(298,483)" d="m0 0h1v31l-2-3-1-7v-10z" fill="#B7AD9D"/>
<path transform="translate(366,469)" d="m0 0 1 2-6 16-3 4-1-4 7-16z" fill="#BAB3A6"/>
<path transform="translate(442,451)" d="m0 0 3 1-10 6h-7l1-5 3-1v2l6-1z" fill="#B2A99C"/>
<path transform="translate(330,397)" d="m0 0 2 1-4 11h-1l-1-8-7-2v-1z" fill="#B9B0A0"/>
<path transform="translate(314,516)" d="m0 0h1v20l-3-1v-13z" fill="#D5D0C7"/>
<path transform="translate(462,419)" d="m0 0 1 3-5 3-8 10h-2l2-4 8-10z" fill="#B1A899"/>
<path transform="translate(342,510)" d="m0 0h2v3h2l-1 3-7 1-3-1-1-3 7-2z" fill="#C6BEB1"/>
<path transform="translate(156,513)" d="m0 0 17 1 1 4-10-1-8-3z" fill="#BAB0A1"/>
<path transform="translate(613,508)" d="m0 0 16 1-3 1v3h-6l-7-4z" fill="#C4BCAF"/>
<path transform="translate(281,257)" d="m0 0 7 1 1 2-2 4v-2h-4l-3 2-1-6z" fill="#F6F6F5"/>
<path transform="translate(743,468)" d="m0 0 2 4-1 4-2 2-1 4-3-3 3-7z" fill="#EDEBE8"/>
<path transform="translate(639,511)" d="m0 0h9l-4 3-3 1h-9l1-2z" fill="#D4CFC6"/>
<path transform="translate(309,506)" d="m0 0h3l-1 13-2 7h-1z" fill="#BEB5A7"/>
<path transform="translate(462,451)" d="m0 0 2 1-8 6-10 4-3-1 16-8z" fill="#D1CAC0"/>
<path transform="translate(736,412)" d="m0 0h8l-1 2-9 4-3-1z" fill="#BCB3A5"/>
<path transform="translate(628,382)" d="m0 0 1 4-5 10h-2l1-6z" fill="#B7AD9D"/>
<path transform="translate(568,532)" d="m0 0h3v11l2 1-4-1-4-3h2z" fill="#FCFCFC"/>
<path transform="translate(186,441)" d="m0 0 1 2 7-1-4 4-3 2h-4l1-4h2z" fill="#E9E6E2"/>
<path transform="translate(428,496)" d="m0 0h14l-2 2-9 1z" fill="#D6D0C7"/>
<path transform="translate(558,482)" d="m0 0 1 3-3 6h-3-3z" fill="#C0B8AA"/>
<path transform="translate(263,430)" d="m0 0v3l-7 8-1-2 3-7 4-1z" fill="#D4CEC5"/>
<path transform="translate(621,486)" d="m0 0 2 3 5 8 2 2-4-1-4-4z" fill="#B9AFA0"/>
<path transform="translate(279,510)" d="m0 0h1l-1 8-2 7h-1l1-10z" fill="#B7AD9D"/>
<path transform="translate(315,419)" d="m0 0 1 4-3 10-2 2 2-11z" fill="#AAA092"/>
<path transform="translate(270,416)" d="m0 0 3 1-2 4h-2z" fill="#706964"/>
<path transform="translate(292,260)" d="m0 0 6 2-4 2z" fill="#E6E3DE"/>
<path transform="translate(625,476)" d="m0 0h1v12h-1z" fill="#B7AD9D"/>
<path transform="translate(393,432)" d="m0 0h2l-1 3z" fill="#B7AD9D"/>
<path transform="translate(422,421)" d="m0 0h1v5h-1z" fill="#968D80"/>
<path transform="translate(176,464)" d="m0 0 3 1z" fill="#B7AD9D"/>
<path transform="translate(367,467)" d="m0 0" fill="#B7AD9D"/>
<path transform="translate(594,464)" d="m0 0" fill="#B7AD9D"/>
<path transform="translate(204,406)" d="m0 0 2 1z" fill="#B7AD9D"/>
<path transform="translate(473,449)" d="m0 0" fill="#B7AD9D"/>
<path transform="translate(474,448)" d="m0 0" fill="#B7AD9D"/>
<path transform="translate(475,447)" d="m0 0" fill="#B7AD9D"/>
<path transform="translate(644,433)" d="m0 0" fill="#B7AD9D"/>
<path transform="translate(282,431)" d="m0 0" fill="#B7AD9D"/>
<path transform="translate(202,408)" d="m0 0" fill="#B7AD9D"/>
<path transform="translate(203,407)" d="m0 0" fill="#B7AD9D"/>
<path transform="translate(206,405)" d="m0 0" fill="#B7AD9D"/>
<path transform="translate(356,403)" d="m0 0" fill="#B7AD9D"/>
</svg>
