<?xml version="1.0" encoding="UTF-8"?>
<svg version="1.1" viewBox="0 0 2048 1146" width="1280" height="1280" xmlns="http://www.w3.org/2000/svg">
<path transform="translate(926,401)" d="m0 0h119l26 3 21 6 18 8 17 11 11 9 8 8 9 12 10 17 7 17 5 22 2 19v78l-2 19-4 19-6 16-8 16-9 13-11 12-13 11-19 11-17 7-24 6-17 2-19 1h-103l-1-1-1-339zm78 56-1 90v139l1 2h33l20-3 13-5 11-7 8-10 5-10 4-14 3-27v-80l-3-27-4-14-7-13-9-9-14-7-16-4-9-1z" fill="#010000"/>
<path transform="translate(1603,395)" d="m0 0h21l24 3 20 5 18 8 16 10 13 12 8 8 9 13 9 17 6 16 5 23 2 16 1 24v54l-1 21-3 20-6 22-7 16-7 12-9 11-9 10-14 11-14 8-19 7-22 5-16 2h-31l-21-3-21-6-16-7-11-7-10-8-15-15-10-14-8-16-6-18-5-25-1-11v-91l2-18 5-21 6-17 10-19 9-12 11-12 14-11 13-8 14-6 17-5 17-3zm5 57-15 3-9 4-6 4-7 6-7 10-6 12-4 14-3 22-1 47v24l1 25 3 19 5 16 6 11 9 10 10 7 15 5 11 2h8l15-3 11-4 11-8 7-8 8-16 3-13 3-19v-94l-3-21-4-16-8-16-10-11-14-8-11-3-8-1z" fill="#010000"/>
<path transform="translate(1911,395)" d="m0 0h19l23 3 19 5 18 8 15 10 12 11 10 13 8 16 5 14 3 17v7l-2 2-73 1-2-2-5-21-7-13-8-7-11-5-10-2h-14l-12 3-10 6-8 9-4 10-1 4v14l5 12 11 11 13 8 15 7 27 10 20 8 16 8 14 8 17 13 8 9 10 15 7 17 3 15v29l-3 15-8 18-9 12-4 5-11 9-14 8-15 6-25 6-17 2h-31l-24-4-15-4-16-6-15-8-21-18-11-14-8-15-5-15-2-9-2-17 1-2h78l2 18 4 12 4 8 8 8 12 6 10 3 7 1h17l12-3 10-5 8-9 4-13v-18l-3-10-6-10-8-7-10-6-29-12-25-9-29-14-14-9-14-11-10-11-9-14-6-14-4-17v-18l4-18 6-15 10-14 5-6 11-9 14-9 17-8 18-5 18-3z" fill="#010000"/>
<path transform="translate(1222,401)" d="m0 0h225v55l-2 1h-144v82h122l1 1v54h-123l1 94h144l1 1v54l-10 1h-214l-1-1z" fill="#010000"/>
<path transform="translate(460,400)" d="m0 0h84l3 2 7 24 17 66 16 61 11 42 9 35 2 14 1 2 4-2 6-21 9-35 15-57 24-91 9-36 2-3 31-1h45l11 1-12 38-12 36-20 62-20 61-21 64-23 70-4 11-1 1h-79l-3-3-6-16-16-50-12-36-20-61-16-50-18-55-16-50-7-20z" fill="#010000"/>
<path transform="translate(154,355)" d="m0 0 39 1 4 7 16 34 13 28 18 37 13 28 8 16 14 30 8 17-1 5-8 10-8 11-26 36-10 14-14 19-13 18-9 13-10 13-24 34-10 13-13 19-10 13-10 14-6 5h-110l3-6 12-14 10-13 12-15 10-13 13-16 10-13 14-17 13-17 11-13 13-17 9-11 11-14 10-13 10-12 13-17 8-11-1-4-13-23-12-21-13-24-10-17-15-27-16-28-14-26-13-25-3-5v-2z" fill="#E3958B"/>
<path transform="translate(794,401)" d="m0 0h77l1 1v341l-2 1h-75l-1-1z" fill="#020101"/>
<path transform="translate(297,589)" d="m0 0 3 1 12 22 12 21 13 24 8 14 14 25 13 23 14 25 13 23 12 21-1 2h-116l-6-8-16-34-13-27-13-28-8-16v-7l18-24 14-19 13-18 10-14z" fill="#E3958B"/>
<path transform="translate(343,355)" d="m0 0h110l-2 4-9 10-11 14-12 14-11 14-12 14-9 11-12 14-8 10-11 13-9 11-11 13-8 10-12 14-5 8-4-2-11-23-16-36-7-15 1-6 7-8 13-18 10-14 13-18 14-20 9-12z" fill="#E3958B"/>
<path transform="translate(201,387)" d="m0 0 4 1 3 6 7 11 8 17 3 3 18 37 13 28 8 16 14 30 8 17-1 5-8 10-8 11-26 36-10 14-14 19-13 18-9 13-10 13-12 17-7 10-4-1v-4l4-8h2l2-6 4-7h2l2-5 5-7 6-4h2l3-9 7-11 2-4h2l2-4 4-6 1-3h2l2-4 4-5 4-4h2l1-4h2l2-4 3-7h2l2-4 1-3h2l2-4 5-9 6-18 2-9-1-2 1-13 1-6-1-8-3-13-3-10-5-11-4-12v-2h-2l-5-13-3-7v-3l-2-1-2-7-8-15-5-14-4-9-5-10-6-17z" fill="#4A1812"/>
<path transform="translate(297,589)" d="m0 0 3 1 12 22 12 21 11 20-1 5 2 1 5 7 1 4h-5l-3-5-1-5-5-5-9-17-3-5-3-3-3-5-4-4v-2l-5-1-4-4-2-10-2-6 3-8z" fill="#55211A"/>
<path transform="translate(201,671)" d="m0 0 2 1-9 12-13 18-12 17-4-1v-4l4-8h2l2-6 4-7h2l2-5 5-7 9-6h3v-2z" fill="#501D16"/>
<path transform="translate(153,730)" d="m0 0h4l-1 7-8 10h-4l1-6 7-10z" fill="#521E18"/>
<path transform="translate(318,508)" d="m0 0 3 2-2 8-4 5-4-1-1-2 4-9z" fill="#4E1B15"/>
<path transform="translate(338,485)" d="m0 0 1 3h2l-1 5-5 3-1 2h-2v-2l-2-1 3-5h2l2-4z" fill="#4D1A14"/>
<path transform="translate(242,665)" d="m0 0h3l-3 9-2 4-2-1v-7z" fill="#57221C"/>
<path transform="translate(276,457)" d="m0 0 4 1 5 14h-3l-6-13z" fill="#5F2822"/>
<path transform="translate(201,671)" d="m0 0 2 1-9 12-2 1 2-6 2-4h2v-2z" fill="#E4968C"/>
<path transform="translate(334,655)" d="m0 0h2l6 10-1 2-7-9z" fill="#E4968C"/>
</svg>
