<?xml version="1.0" encoding="UTF-8"?>
<svg version="1.1" viewBox="0 0 2048 1361" width="1280" height="1280" xmlns="http://www.w3.org/2000/svg">
<path transform="translate(1006,248)" d="m0 0h37l22 2 30 6 26 8 25 10 16 8 14 8 15 10 13 10 11 9 12 11 10 10 9 11 12 15 14 21 10 18 11 24 9 25 6 26 4 23 1 9v50l-3 21-5 24-6 21-10 25-12 25-17 28-14 25-5 8h97v227h-229l-2 6-6 9-12 22-9 15-17 29-10 18-14 23-5 10-8 13h-4l-13-23-15-26-9-15-6-11-13-22-11-19-9-16-7-12-229-1v-227h97l-9-15-14-24-10-18-8-16-10-23-7-19-6-20-7-33-2-20v-37l2-18 8-36 4-13 8-20 10-22 12-21 14-20 11-14 12-13 9-10 11-10 14-11 14-10 21-13 16-8 19-8 17-6 17-5 30-6zm-3 36-26 3-28 7-20 7-16 7-17 9-20 13-10 8-14 12-16 16v2h-2l-9 11-10 14-14 22-12 26-6 15-7 24-6 36v42l6 35 6 21 10 25 10 21 9 15 12 21 14 24 10 17 14 25 6 9 1 3h-123v157l215 1 7 13 13 22 10 18 15 25 12 22 6 9 3-1 8-13 11-20 9-15 13-23 12-20 9-16v-2h214l1-1v-156h-123l30-52 14-24 16-28 8-13 8-18 5-11 6-17 5-18 5-26 1-7v-47l-3-18-4-20-10-30-5-11-11-23-7-11-13-19-13-15-22-22-14-11-13-9-15-9-19-10-25-9-13-4-26-6-20-2z"/>
<path transform="translate(1022,363)" d="m0 0 5 1 18 18 7 8 22 22v2h2l7 8 26 26 7 8 32 32 7 8 19 19 7 8 28 28 6 7 6 5v2h-61v141l-4 1h-121l-2-1-1-25v-65h-16v90l-82 1h-44l-1-1v-141h-62l2-4 10-9 15-16 33-33 1-2h2l2-4 9-9 6-7h2v-2l6-5 2-3h2l2-4 27-27 7-8 29-29 7-8 21-21 7-8zm2 50-3 2v2l-4 2-11 12-13 13v2l-4 2-9 10-30 30-7 8-29 29-3 5h12l1 140 1 1h55l1-1v-88l5-1h82v89l1 1h55l1-1v-141l12 1-2-4-26-26-7-8-23-23-4-5h-2l-2-4-37-37-7-8z"/>
<path transform="translate(1030,799)" d="m0 0h21l5 5 10 14 11 14 20 26 4 5v-57l1-7h22l1 1v105l-3 1h-16l-4-2-14-19-11-14-18-24-5-6-1 64-5 1h-17l-1-1z"/>
<path transform="translate(818,799)" d="m0 0h48l12 1 13 5 9 8 6 13 1 4v9l-5 13-7 10-10 5 1 4 13 19 8 12 1 4h-27l-16-25-6-8-18-1v33l-1 1h-22l-1-6v-100zm23 22v30h29l7-3 4-5 1-3v-9l-4-7-4-2-9-1z"/>
<path transform="translate(928,799)" d="m0 0h79l1 4-1 18h-56l1 20 49 1v21h-50v22h57l1 1v19l-6 1h-74l-1-1z"/>
<path transform="translate(1143,799)" d="m0 0h87l1 1v21l-9 1h-24v83l-10 1h-12l-1-1-1-31v-49l1-3h-32z"/>
</svg>
